<svg preserveAspectRatio="none" overflow="visible" style="display: block;" width="20" height="20" viewBox="0 0 20 20" fill="none" xmlns="http://www.w3.org/2000/svg">
<g id="ic:outline-chair">
<path id="Vector" d="M16.6667 6.66667V5C16.6667 3.625 15.5417 2.5 14.1667 2.5H5.83333C4.45833 2.5 3.33333 3.625 3.33333 5V6.66667C1.95833 6.66667 0.833333 7.79167 0.833333 9.16667V13.3333C0.833333 14.7083 1.95833 15.8333 3.33333 15.8333V16.6667C3.33333 17.125 3.70833 17.5 4.16667 17.5C4.625 17.5 5 17.125 5 16.6667V15.8333H15V16.6667C15 17.125 15.375 17.5 15.8333 17.5C16.2917 17.5 16.6667 17.125 16.6667 16.6667V15.8333C18.0417 15.8333 19.1667 14.7083 19.1667 13.3333V9.16667C19.1667 7.79167 18.0417 6.66667 16.6667 6.66667ZM5 5C5 4.54167 5.375 4.16667 5.83333 4.16667H14.1667C14.625 4.16667 15 4.54167 15 5V7.31667C14.4917 7.775 14.1667 8.43333 14.1667 9.16667V10.8333H5.83333V9.16667C5.83333 8.43333 5.50833 7.775 5 7.31667V5ZM17.5 13.3333C17.5 13.7917 17.125 14.1667 16.6667 14.1667H3.33333C2.875 14.1667 2.5 13.7917 2.5 13.3333V9.16667C2.5 8.70833 2.875 8.33333 3.33333 8.33333C3.79167 8.33333 4.16667 8.70833 4.16667 9.16667V12.5H15.8333V9.16667C15.8333 8.70833 16.2083 8.33333 16.6667 8.33333C17.125 8.33333 17.5 8.70833 17.5 9.16667V13.3333Z" fill="white"/>
</g>
</svg>
